<svg id="Layer_1" enable-background="new 0 0 64 64" viewBox="0 0 64 64" xmlns="http://www.w3.org/2000/svg" width="300" height="300" version="1.1" xmlns:xlink="http://www.w3.org/1999/xlink" xmlns:svgjs="http://svgjs.dev/svgjs"><g width="100%" height="100%" transform="matrix(1,0,0,1,0,0)"><g><path d="m13.72 57.24c-8.27-.11-13.02-.98-13.02-2.39v-5.14.01c.01 0 .01-.03.02-.07l.01-.06-.01-.11-.02-.09c.01-.34.01-1.23 5.41-1.85l.44-.05v-1.33l-.44-.05c-2.47-.29-5.41-.86-5.41-1.97v-2.89l-.09-.13c-.07-.1-.11-.19-.11-.28v-33.58c0-.28.22-.5.5-.5h62c.28 0 .5.22.5.5v33.58c0 .28-.22.5-.5.5h-31.74l-.07 1c4.05.58 4.23 1.34 4.23 1.74-.01.03-.02.07-.02.11v.06l.01.09.02.08v5.08c0 1.11-2.94 1.69-5.41 1.97l-.44.05v3.33c0 1.41-4.74 2.28-13.01 2.39zm-12.02-2.43.29.14c1.18.56 5.36 1.21 11.74 1.29h2.83c6.38-.08 10.55-.73 11.73-1.29l.29-.14v-3.2l-.54.04c-1.64.12-3.53.2-5.62.23h-2.84c-.6-.01-1.17-.02-1.72-.04-.9.02-1.79.04-2.71.04-6.08 0-10.5-.41-12.78-1.17l-.67-.22zm16.25-3.96c.52.02 1.06.03 1.63.04h2.83c6.38-.08 10.55-.73 11.74-1.29l.29-.14v-4.32l-.66.22c-2.28.77-6.7 1.17-12.78 1.17-.92 0-1.81-.01-2.67-.04-.58.01-1.15.03-1.75.04h-2.84c-2.11-.03-4-.1-5.63-.23l-.54-.04v3.2l.29.13c.71.32 2.68.76 6.09 1.04 1.21.1 2.53.17 3.93.21zm-11.96-2.28c-1.05.12-1.95.27-2.69.43l-2.19.49 2.2.48c.73.16 1.68.31 2.73.44l.76.09-.23-.74-.02-.12v-.14-1zm-4.29-4.47.29.14c1.18.56 5.36 1.21 11.74 1.29h2.83c.57-.01 1.11-.02 1.63-.04l.12-.01c6.12-.19 9.15-.88 9.98-1.25l.29-.13v-2.76h-26.88zm27.87.16-.02.11-.22.73.75-.03c1.07-.13 2-.28 2.74-.44l2.2-.48-2.2-.49c-.73-.16-1.64-.31-2.69-.44l-.56-.07zm0-5.52s-.01.04-.02.09v.06l.01.09.02.08v1.28h32.92v-32.58h-61v30.11l.67-.25c1.46-.54 3.88-.9 7.17-1.09l.52-.03-.05-.52c-.15-1.7-1.55-2.98-3.25-2.98-.28 0-.5-.22-.5-.5v-16.9c0-.28.22-.5.5-.5 1.81 0 3.29-1.47 3.29-3.29 0-.28.22-.5.5-.5h43.31c.28 0 .5.22.5.5 0 1.81 1.47 3.29 3.29 3.29.28 0 .5.22.5.5v16.9c0 .28-.22.5-.5.5-1.81 0-3.29 1.47-3.29 3.29 0 .28-.22.5-.5.5h-27.46l2.24.96c.5.21 1.1.56 1.13.99zm-14.43-1.36c-7.18 0-10.88.69-11.84.91l-2.21.49 2.21.49c.96.21 4.66.91 11.84.91s10.88-.69 11.84-.91l2.21-.49-2.21-.49c-.96-.22-4.66-.91-11.84-.91zm21.4-24.11c4.34 1.84 7.15 6.07 7.15 10.78s-2.81 8.94-7.15 10.78l-2.27.96h18.9l.08-.4c.35-1.65 1.65-2.95 3.3-3.3l.4-.08v-15.92l-.4-.08c-1.65-.35-2.95-1.65-3.3-3.3l-.08-.4h-18.9zm-25.79-.56c-.35 1.65-1.65 2.95-3.3 3.3l-.4.08v15.92l.4.08c1.65.35 2.95 1.65 3.3 3.3l.08.4h18.9l-2.27-.96c-4.35-1.84-7.15-6.07-7.15-10.78s2.81-8.94 7.15-10.78l2.27-.96h-18.9zm21.25.64c-5.9 0-10.69 4.8-10.69 10.7s4.8 10.69 10.69 10.69 10.69-4.8 10.69-10.69c0-5.9-4.79-10.7-10.69-10.7z" fill="#ffffff" fill-opacity="1" data-original-color="#000000ff" stroke="none" stroke-opacity="1"/><path d="m1 7.26v1 28.89 1.13zm52.66 4.55c0 .25.03.5.07.74l-.16-.74zm-43.23 0-.16.74c.05-.24.07-.49.07-.74zm21.57.08 4.27 1.81c-1.32-.55-2.76-.85-4.27-.85s-2.96.3-4.27.85zm21.83 1.06c.37 1.18 1.3 2.1 2.48 2.48-1.18-.37-2.11-1.3-2.48-2.48m-43.66.01c-.37 1.17-1.3 2.1-2.47 2.47 1.17-.37 2.09-1.3 2.47-2.47m26.74 1.03c3.19 1.56 5.42 4.51 6.08 7.92-.68-3.48-2.98-6.4-6.08-7.92m-9.82 0c-3.1 1.52-5.4 4.44-6.08 7.92.66-3.41 2.89-6.36 6.08-7.92m29.61 1.54c.24.05.49.07.74.07v.09zm-49.4 0-.74.16v.81 15.1.81l.71.15c-.23-.04-.47-.06-.71-.06v-16.9c.25 0 .5-.02.74-.07m35.89 8.49c0 .01 0 .01 0 0m-22.38 0c0 .01 0 .01 0 0m22.38.01c0 .01 0 .01 0 0m-22.38 0c0 .01 0 .01 0 0m22.38.01s0 .01 0 0zm-22.38 0s0 .01 0 0zm22.38.01s0 .01 0 0zm-22.38 0s0 .01 0 0zm22.18 2.14c-.65 3.36-2.81 6.25-5.91 7.83 3.01-1.54 5.24-4.41 5.91-7.83m-21.98 0c.67 3.42 2.9 6.29 5.91 7.83-3.09-1.57-5.26-4.47-5.91-7.83m36.43 6.22v.09c-.25 0-.5.03-.74.07zm-1.13.26c-1.18.37-2.11 1.3-2.48 2.48.37-1.18 1.3-2.11 2.48-2.48m-47.58.51c.77.54 1.33 1.36 1.53 2.31l.17.79h.81 16.03 4.54 4.93 16.03.81l.16-.74c-.05.24-.07.49-.07.74h-25.04-4.86l3.72 1.6-.41-.09c-2.6-.57-7.07-.92-11.95-.92-4.26 0-8.21.26-10.87.71 1.34-.26 3.04-.44 5.11-.56l1.04-.06-.1-1.03c-.1-1.15-.71-2.13-1.58-2.75m27.52 1.23-4.25 1.79-4.25-1.8c1.31.54 2.75.84 4.25.84s2.94-.29 4.25-.83m-35.25 4.85 2.19.48c2.6.57 7.07.92 11.95.92s9.35-.34 11.95-.92l1.99-.44v.53 1h-1-25.88-1v1 1.94.36-2.73l-.01-.3-.19-.26zm62 1.58h-31.74l-.14 1.99c.62.09 1.42.22 2.13.4l-.32-.07c-.75-.17-1.67-.32-2.74-.45l-1.12-.13v1.13.44.02-.38-1.19-.75-1h1 31.93 1m-33.98 3.6-.39 1.29 1.52-.18c.66-.08 1.27-.17 1.81-.26-2.45.48-6.18.73-10.97.73-.85 0-1.72-.01-2.66-.04h-.03-.03c-.55.02-1.12.03-1.71.04h-2.84c-2.09-.03-3.98-.1-5.61-.23l-1.08-.08v1.08 1.14-.89-.44-.89l-.89-.1c-1.15-.13-2.04-.29-2.72-.45 2.05.42 5.59.79 10.28.86h.01.01 2.83c.57-.01 1.11-.02 1.66-.04h.05c5.82-.18 9.14-.81 10.21-1.3zm-23.59 3.68c-.85.11-1.6.24-2.23.38l-.2.05c.65-.16 1.46-.3 2.43-.43m1.62 1.37v.02c0-.01 0-.02 0-.02m.06.31.53.24c.97.44 3.31.84 6.25 1.08 1.2.1 2.5.17 3.87.21h.15c.53.02 1.08.03 1.67.04h2.83c4.69-.06 8.23-.43 10.28-.86-.68.16-1.58.32-2.74.45l-.89.1-1.06.09c-1.62.12-3.5.2-5.58.23h-2.83c-.6-.01-1.17-.02-1.72-.04h-.03-.03c-.94.02-1.81.04-2.67.04-4.78 0-8.51-.25-10.96-.73.54.09 1.15.18 1.8.26l1.52.18zm-5.91.22v1.16 3.31.36zm26.3 5.7c-1.57.44-4.7.93-10.94 1.01h-2.84c-6.2-.08-9.34-.56-10.93-1 1.91.48 5.7.93 10.91 1h.01.01 2.83c5.26-.07 9.06-.53 10.95-1.01m35.5-49.47h-62c-.55 0-1 .45-1 1v33.58c0 .22.08.41.2.57v2.73c0 .51 0 1.79 5.85 2.47v.44c-5.37.61-5.85 1.54-5.85 2.44 0 .03.02.06.02.1-.01.04-.03.08-.03.13v5.14c0 .67 0 2.71 13.52 2.89h2.85c13.51-.18 13.51-2.22 13.51-2.89v-2.89c5.85-.68 5.85-1.96 5.85-2.47v-5.14c0-.04-.02-.08-.03-.13 0-.03.02-.06.02-.1 0-.83-.4-1.68-4.66-2.29h31.75c.55 0 1-.45 1-1v-33.58c0-.55-.45-1-1-1zm-61 30.89v-28.89h60v31.58h-31.93v-.84c0-.04-.02-.08-.03-.13 0-.03.02-.06.02-.1 0-.61-.54-1.1-1.44-1.49h25.02c.55 0 1-.45 1-1 0-1.54 1.25-2.79 2.79-2.79.55 0 1-.45 1-1v-16.89c0-.55-.45-1-1-1-1.54 0-2.79-1.25-2.79-2.79 0-.55-.45-1-1-1h-43.3c-.55 0-1 .45-1 1 0 1.54-1.25 2.79-2.79 2.79-.55 0-1 .45-1 1v16.9c0 .55.45 1 1 1 1.45 0 2.63 1.12 2.76 2.53-2.94.17-5.63.51-7.31 1.12zm34.73-1.86c4.38-1.85 7.46-6.19 7.46-11.24s-3.08-9.38-7.46-11.24h16.02c.39 1.84 1.84 3.29 3.68 3.68v15.11c-1.84.39-3.29 1.84-3.68 3.68h-16.02zm-25.49 0c-.39-1.84-1.85-3.29-3.68-3.69v-15.1c1.84-.39 3.29-1.84 3.68-3.68h16.02c-4.38 1.85-7.46 6.19-7.46 11.24s3.08 9.39 7.46 11.24h-16.02zm20.76-1.05c-5.62 0-10.19-4.57-10.19-10.19s4.57-10.2 10.19-10.2 10.19 4.57 10.19 10.2c0 5.62-4.57 10.19-10.19 10.19zm-16.86 5.43c-5.83 0-9.77-.46-11.73-.89 1.96-.43 5.9-.89 11.73-.89s9.77.46 11.73.89c-1.96.43-5.9.89-11.73.89zm-1.41 5.36c-6.47-.09-10.51-.76-11.53-1.25v-1.94h25.87v.75 1.19c-.82.37-3.87 1.03-9.89 1.21 0 0 0 0-.01 0-.52.02-1.06.03-1.62.04zm16.3-.46c.01-.04.01-.07.02-.11 0-.02.01-.04.01-.06 0-.04.01-.07.01-.1 0-.06 0-.11 0-.16v-.44c1.15.14 2.01.29 2.64.43-.67.15-1.56.3-2.68.44zm-9.04 2.46c4.74 0 10.11-.25 12.94-1.2v3.31c-1.02.49-5.06 1.16-11.52 1.24h-2.82c-.57-.01-1.11-.02-1.64-.04 0 0 0 0-.01 0-1.51-.05-2.83-.12-3.97-.21-3.44-.28-5.3-.72-5.92-1v-1.19-1.14c1.56.12 3.43.2 5.67.23h2.85c.61-.01 1.18-.02 1.73-.04.87.02 1.77.04 2.69.04zm-14.89 2.89c-1.12-.13-2.02-.28-2.69-.43.63-.14 1.49-.29 2.64-.43v.44.16c0 .03.01.07.01.1 0 .02.01.04.01.06.02.03.02.06.03.1zm7.63 5.82c-6.47-.09-10.51-.76-11.53-1.24v-3.31c2.83.95 8.2 1.2 12.94 1.2.92 0 1.82-.01 2.69-.04.56.02 1.13.03 1.74.04h2.85c2.24-.03 4.1-.11 5.66-.23v2.34c-1.02.49-5.06 1.16-11.52 1.24z" fill="#ffffff" fill-opacity="1" data-original-color="#000000ff" stroke="none" stroke-opacity="1"/></g><g><path d="m32 31.57c-.28 0-.5-.22-.5-.5v-.85l-.37-.1c-1.46-.4-2.48-1.72-2.48-3.22 0-.28.22-.5.5-.5s.5.22.5.5c0 1.3 1.06 2.35 2.35 2.35s2.35-1.06 2.35-2.35c0-1.3-1.06-2.35-2.35-2.35-1.85 0-3.35-1.5-3.35-3.35 0-1.5 1.02-2.83 2.48-3.22l.37-.1v-.85c0-.28.22-.5.5-.5s.5.22.5.5v.85l.37.1c1.46.4 2.48 1.72 2.48 3.22 0 .28-.22.5-.5.5s-.5-.22-.5-.5c0-1.3-1.06-2.35-2.35-2.35s-2.35 1.06-2.35 2.35 1.06 2.35 2.35 2.35c1.85 0 3.35 1.5 3.35 3.35 0 1.5-1.02 2.83-2.48 3.22l-.37.1v.85c0 .28-.22.5-.5.5z" fill="#ffffff" fill-opacity="1" data-original-color="#000000ff" stroke="none" stroke-opacity="1"/><path d="m32 17.03v.47.77l.45.12c-.15-.02-.3-.04-.45-.04s-.3.01-.45.04l.45-.13v-.77zm2.85 4.15s0 .01 0 0zm-5.7 0s0 .01 0 0zm0 .02c0 1.57 1.28 2.85 2.85 2.85s2.85 1.28 2.85 2.85c0-1.57-1.28-2.85-2.85-2.85s-2.85-1.28-2.85-2.85m5.7 5.7s0 .01 0 0zm-5.7 0s0 .01 0 0zm3.3 2.82-.45.12v.77.47-.47-.77l-.45-.12c.15.02.3.04.45.04s.3-.02.45-.04m-.45-13.69c-.55 0-1 .45-1 1v.47c-1.64.44-2.85 1.93-2.85 3.71 0 2.12 1.73 3.85 3.85 3.85 1.02 0 1.85.83 1.85 1.85s-.83 1.85-1.85 1.85-1.85-.83-1.85-1.85c0-.55-.45-1-1-1s-1 .45-1 1c0 1.78 1.22 3.26 2.85 3.7v.47c0 .55.45 1 1 1s1-.45 1-1v-.47c1.64-.44 2.85-1.93 2.85-3.7 0-2.12-1.73-3.85-3.85-3.85-1.02 0-1.85-.83-1.85-1.85s.83-1.85 1.85-1.85 1.85.83 1.85 1.85c0 .55.45 1 1 1s1-.45 1-1c0-1.78-1.22-3.26-2.85-3.71v-.47c0-.56-.45-1-1-1z" fill="#ffffff" fill-opacity="1" data-original-color="#000000ff" stroke="none" stroke-opacity="1"/></g><g><path d="m54.54 56.63c-.25 0-.47-.19-.5-.45-.03-.27.17-.52.44-.55l5.35-.59-10.97-6.91-2.19 3.06c-.09.13-.25.21-.41.21-.09 0-.19-.03-.27-.08l-6.55-4.16c-.23-.15-.3-.46-.15-.69.09-.14.25-.23.42-.23.09 0 .19.03.27.08l6.15 3.91 2.19-3.06c.09-.13.25-.21.41-.21.09 0 .19.03.27.08l11.25 7.08v-4.63c0-.28.22-.5.5-.5s.5.22.5.5v5.96c0 .26-.19.47-.45.5z" fill="#ffffff" fill-opacity="1" data-original-color="#000000ff" stroke="none" stroke-opacity="1"/><path d="m39.72 46.74 5.75 3.65.7.44zm9.02.72 10.48 6.6 1.53.97-1.86-1.17-9.36-5.89-.79-.51-.55.77-1.92 2.67.55-.77zm-9.02-1.72c-.33 0-.66.16-.85.46-.3.47-.16 1.08.31 1.38l6.55 4.16c.17.1.35.15.53.15.31 0 .62-.15.81-.42l1.93-2.66 9.36 5.89-3.93.43c-.55.06-.95.55-.88 1.1.06.51.49.89.99.89.04 0 .07 0 .11-.01l6.21-.68c.51-.06.89-.48.89-.99v-5.96c0-.55-.45-1-1-1s-1 .45-1 1v3.73l-10.48-6.6c-.17-.1-.35-.15-.53-.15-.31 0-.62.15-.81.42l-1.91 2.67-5.75-3.65c-.18-.11-.36-.16-.55-.16z" fill="#ffffff" fill-opacity="1" data-original-color="#000000ff" stroke="none" stroke-opacity="1"/></g></g></svg>