<svg id="Layer_1" enable-background="new 0 0 48 48" viewBox="0 0 48 48" xmlns="http://www.w3.org/2000/svg" width="300" height="300" version="1.1" xmlns:xlink="http://www.w3.org/1999/xlink" xmlns:svgjs="http://svgjs.dev/svgjs"><g width="100%" height="100%" transform="matrix(1,0,0,1,0,0)"><g><g><path d="m17.24 37.15c2.04 1.24 4.35 1.94 6.76 1.94s4.72-.71 6.76-1.94c-1.45-1.51-3.92-2.52-6.76-2.52s-5.31 1.01-6.76 2.52z" fill="#ffffff" fill-opacity="1" data-original-color="#000000ff" stroke="none" stroke-opacity="1"/></g><g><path d="m17.24 37.15c2.04 1.24 4.35 1.94 6.76 1.94s4.72-.71 6.76-1.94c-1.45-1.51-3.92-2.52-6.76-2.52s-5.31 1.01-6.76 2.52z" fill="#ffffff" fill-opacity="1" data-original-color="#000000ff" stroke="none" stroke-opacity="1"/></g><g><path d="m11.17 15.83c0 1.34 1.15 2.43 2.62 2.56v-5.11c-1.47.12-2.62 1.21-2.62 2.55z" fill="#ffffff" fill-opacity="1" data-original-color="#000000ff" stroke="none" stroke-opacity="1"/><path d="m24 .5c-12.98 0-23.5 10.52-23.5 23.5s10.52 23.5 23.5 23.5c12.98 0 23.5-10.52 23.5-23.5s-10.52-23.5-23.5-23.5zm-14.33 15.33c0-2.17 1.83-3.92 4.12-4.06v-1.11h1.5v1.11c2.29.13 4.12 1.89 4.12 4.06h-1.5c0-1.34-1.15-2.43-2.62-2.56v5.16c2.29.13 4.12 1.89 4.12 4.06s-1.83 3.92-4.12 4.06v1.43h-1.5v-1.43c-2.29-.13-4.12-1.89-4.12-4.06h1.5c0 1.34 1.15 2.43 2.62 2.56v-5.16c-2.29-.13-4.12-1.89-4.12-4.06zm14.33 24.76c-6.35 0-11.81-4.16-14.27-10.11 9.28 3.29 19.26 3.29 28.54 0-2.46 5.95-7.92 10.11-14.27 10.11zm14.32-18.1c0 2.16-1.83 3.92-4.12 4.06v1.43h-1.5v-1.43c-2.29-.13-4.12-1.89-4.12-4.06h1.5c0 1.34 1.15 2.43 2.62 2.56v-5.16c-2.29-.13-4.12-1.89-4.12-4.06s1.83-3.92 4.12-4.06v-1.11h1.5v1.11c2.29.13 4.12 1.89 4.12 4.06h-1.5c0-1.34-1.15-2.43-2.62-2.56v5.16c2.29.14 4.12 1.9 4.12 4.06z" fill="#ffffff" fill-opacity="1" data-original-color="#000000ff" stroke="none" stroke-opacity="1"/><path d="m17.91 22.49c0-1.34-1.15-2.43-2.62-2.56v5.11c1.46-.11 2.62-1.21 2.62-2.55z" fill="#ffffff" fill-opacity="1" data-original-color="#000000ff" stroke="none" stroke-opacity="1"/><path d="m30.08 15.83c0 1.34 1.15 2.43 2.62 2.56v-5.11c-1.47.12-2.62 1.21-2.62 2.55z" fill="#ffffff" fill-opacity="1" data-original-color="#000000ff" stroke="none" stroke-opacity="1"/><path d="m36.82 22.49c0-1.34-1.15-2.43-2.62-2.56v5.11c1.46-.11 2.62-1.21 2.62-2.55z" fill="#ffffff" fill-opacity="1" data-original-color="#000000ff" stroke="none" stroke-opacity="1"/></g></g></g></svg>